<svg xmlns="http://www.w3.org/2000/svg" width="1200" height="675" viewBox="0 0 1200 675" font-family="-apple-system, 'Segoe UI', Inter, system-ui, sans-serif">
  <rect width="1200" height="675" fill="#0A0A11"/>
  <text x="60" y="80" font-size="36" font-weight="800" fill="#F4F3FA">You pay for tokens twice</text>
  <text x="60" y="110" font-size="17" fill="#8F8DA3">Input: the system prompt, on every request. Output: what the model writes back, per screen.</text>

  <!-- Input -->
  <text x="60" y="205" font-size="17" font-weight="700" fill="#F4F3FA">System prompt · tokens from each SDK's own generator</text>
  <text x="60" y="252" font-size="15" font-weight="600" fill="#8F8DA3">OpenUI Lang</text>
  <rect x="250" y="232" width="780" height="30" rx="8" fill="rgba(255,255,255,0.05)"/>
  <rect x="250" y="232" width="249" height="30" rx="8" fill="#A78BFF"/>
  <text x="513" y="254" font-size="16" font-weight="800" fill="#F4F3FA">3,764</text>
  <text x="60" y="296" font-size="15" font-weight="600" fill="#8F8DA3">json-render</text>
  <rect x="250" y="276" width="780" height="30" rx="8" fill="rgba(255,255,255,0.05)"/>
  <rect x="250" y="276" width="434" height="30" rx="8" fill="#8E8E9C"/>
  <text x="698" y="298" font-size="16" font-weight="800" fill="#F4F3FA">6,575 · 1.7×</text>
  <text x="60" y="340" font-size="15" font-weight="600" fill="#8F8DA3">A2UI</text>
  <rect x="250" y="320" width="780" height="30" rx="8" fill="rgba(255,255,255,0.05)"/>
  <rect x="250" y="320" width="780" height="30" rx="8" fill="#4E9CF5"/>
  <text x="1022" y="342" font-size="16" font-weight="800" fill="#0A0A11" text-anchor="end">11,822 · 3.1×</text>

  <!-- Output -->
  <text x="60" y="425" font-size="17" font-weight="700" fill="#F4F3FA">Model output per screen · mean over Gemini's 460 generations</text>
  <text x="60" y="472" font-size="15" font-weight="600" fill="#8F8DA3">OpenUI Lang</text>
  <rect x="250" y="452" width="780" height="30" rx="8" fill="rgba(255,255,255,0.05)"/>
  <rect x="250" y="452" width="403" height="30" rx="8" fill="#A78BFF"/>
  <text x="667" y="474" font-size="16" font-weight="800" fill="#F4F3FA">1,546</text>
  <text x="60" y="516" font-size="15" font-weight="600" fill="#8F8DA3">json-render</text>
  <rect x="250" y="496" width="780" height="30" rx="8" fill="rgba(255,255,255,0.05)"/>
  <rect x="250" y="496" width="740" height="30" rx="8" fill="#8E8E9C"/>
  <text x="982" y="518" font-size="16" font-weight="800" fill="#0A0A11" text-anchor="end">2,837 · +84%</text>
  <text x="60" y="560" font-size="15" font-weight="600" fill="#8F8DA3">A2UI</text>
  <rect x="250" y="540" width="780" height="30" rx="8" fill="rgba(255,255,255,0.05)"/>
  <rect x="250" y="540" width="780" height="30" rx="8" fill="#4E9CF5"/>
  <text x="1022" y="562" font-size="16" font-weight="800" fill="#0A0A11" text-anchor="end">2,992 · +94%</text>

  <text x="60" y="612" font-size="14" fill="#5C5A6E">tiktoken o200k on the exact prompts and outputs. Leaner output also fills the context window slower in long conversations.</text>
  <text x="60" y="649" font-size="13" fill="#5C5A6E">openui-bench · 46 screen briefs · 73-component catalog · official SDK pipelines</text>
  <text x="1140" y="649" font-size="13" font-weight="700" fill="#8F8DA3" text-anchor="end">thesys.dev</text>
</svg>
