<svg width="146" height="24" viewBox="0 0 146 24" fill="none" xmlns="http://www.w3.org/2000/svg">
<path opacity="0.12" d="M5.46094 18.1641C4.92448 18.1641 4.43229 18.0469 3.98438 17.8125C3.54167 17.5781 3.18229 17.2214 2.90625 16.7422H2.89062V18H1.27344V6.35938H2.92188V10.9453H2.9375C3.20312 10.487 3.55729 10.1458 4 9.92188C4.44271 9.69792 4.93229 9.58594 5.46875 9.58594C6.17708 9.58594 6.79948 9.76823 7.33594 10.1328C7.8724 10.4922 8.28906 10.9948 8.58594 11.6406C8.88802 12.2812 9.03906 13.026 9.03906 13.875C9.03906 14.724 8.89062 15.4714 8.59375 16.1172C8.29688 16.7578 7.88021 17.2604 7.34375 17.625C6.80729 17.9844 6.17969 18.1641 5.46094 18.1641ZM5.125 16.7422C5.79167 16.7422 6.33073 16.4974 6.74219 16.0078C7.15885 15.5182 7.36719 14.8073 7.36719 13.875C7.36719 12.9427 7.15885 12.2318 6.74219 11.7422C6.33073 11.2474 5.79167 11 5.125 11C4.42188 11 3.85938 11.263 3.4375 11.7891C3.02083 12.3099 2.8125 13.0052 2.8125 13.875C2.8125 14.7396 3.02083 15.4349 3.4375 15.9609C3.85938 16.4818 4.42188 16.7422 5.125 16.7422ZM13.4766 18.1641C12.9141 18.1641 12.4062 18.0417 11.9531 17.7969C11.5052 17.5469 11.1484 17.1797 10.8828 16.6953C10.6224 16.2109 10.4922 15.6094 10.4922 14.8906V9.75H12.1406V14.6875C12.1406 15.349 12.2995 15.849 12.6172 16.1875C12.9349 16.5208 13.3802 16.6875 13.9531 16.6875C14.5104 16.6875 14.9792 16.5156 15.3594 16.1719C15.7448 15.8229 15.9375 15.2656 15.9375 14.5V9.75H17.5859V18H15.9688V16.7578C15.4062 17.6953 14.5755 18.1641 13.4766 18.1641ZM19.4453 18V9.75H21.0938V18H19.4453ZM20.2656 8.32812C19.974 8.32812 19.7266 8.23177 19.5234 8.03906C19.3255 7.84115 19.2266 7.60156 19.2266 7.32031C19.2266 7.03385 19.3255 6.79427 19.5234 6.60156C19.7266 6.40365 19.974 6.30469 20.2656 6.30469C20.5573 6.30469 20.8047 6.40365 21.0078 6.60156C21.2109 6.79427 21.3125 7.03385 21.3125 7.32031C21.3125 7.60156 21.2109 7.84115 21.0078 8.03906C20.8047 8.23177 20.5573 8.32812 20.2656 8.32812ZM24.6094 6.35938V18H22.9609V6.35938H24.6094ZM30.5312 9.75V11.1094H28.8594V15.8203C28.8594 16.1276 28.9219 16.3411 29.0469 16.4609C29.1719 16.5807 29.3984 16.6406 29.7266 16.6406H30.5312V18H29.4922C27.9661 18 27.2031 17.3438 27.2031 16.0312V11.1094H25.75V9.75H27.2031V7.5H28.8594V9.75H30.5312ZM37.4609 18L34.9062 9.75H36.6328L37.5781 13.125C37.7188 13.625 37.8516 14.1354 37.9766 14.6562C38.1068 15.1771 38.2344 15.6927 38.3594 16.2031C38.4948 15.6927 38.6276 15.1771 38.7578 14.6562C38.8932 14.1354 39.0286 13.625 39.1641 13.125L40.125 9.75H41.6953L42.6406 13.125C42.7812 13.6198 42.9167 14.125 43.0469 14.6406C43.1771 15.1562 43.3073 15.6667 43.4375 16.1719C43.5625 15.6667 43.6875 15.1562 43.8125 14.6406C43.9427 14.125 44.0781 13.6198 44.2188 13.125L45.1719 9.75H46.9141L44.3594 18H42.6406L41.5938 14.4062C41.474 13.9896 41.3568 13.5625 41.2422 13.125C41.1328 12.6875 41.0234 12.2526 40.9141 11.8203C40.7995 12.2526 40.6849 12.6875 40.5703 13.125C40.4609 13.5625 40.3438 13.9896 40.2188 14.4062L39.1562 18H37.4609ZM48.0391 18V9.75H49.6875V18H48.0391ZM48.8594 8.32812C48.5677 8.32812 48.3203 8.23177 48.1172 8.03906C47.9193 7.84115 47.8203 7.60156 47.8203 7.32031C47.8203 7.03385 47.9193 6.79427 48.1172 6.60156C48.3203 6.40365 48.5677 6.30469 48.8594 6.30469C49.151 6.30469 49.3984 6.40365 49.6016 6.60156C49.8047 6.79427 49.9062 7.03385 49.9062 7.32031C49.9062 7.60156 49.8047 7.84115 49.6016 8.03906C49.3984 8.23177 49.151 8.32812 48.8594 8.32812ZM55.6719 9.75V11.1094H54V15.8203C54 16.1276 54.0625 16.3411 54.1875 16.4609C54.3125 16.5807 54.5391 16.6406 54.8672 16.6406H55.6719V18H54.6328C53.1068 18 52.3438 17.3438 52.3438 16.0312V11.1094H50.8906V9.75H52.3438V7.5H54V9.75H55.6719ZM58.625 13.25V18H56.9766V6.35938H58.625V10.9375C59.1927 10.0365 60.013 9.58594 61.0859 9.58594C61.6536 9.58594 62.1615 9.71094 62.6094 9.96094C63.0625 10.2057 63.4193 10.5703 63.6797 11.0547C63.9401 11.5391 64.0703 12.1406 64.0703 12.8594V18H62.4219V13.0625C62.4219 12.401 62.263 11.9036 61.9453 11.5703C61.6276 11.2318 61.1849 11.0625 60.6172 11.0625C60.0547 11.0625 59.5807 11.237 59.1953 11.5859C58.8151 11.9297 58.625 12.4844 58.625 13.25Z" fill="#151515"/>
<g opacity="0.2">
<path d="M82.1082 18.9751C81.9314 18.9751 81.788 18.8372 81.788 18.667V1.30801C81.788 1.1379 81.9314 1 82.1082 1H85.1066C85.2834 1 85.4267 1.1379 85.4267 1.30801V6.19079C85.4267 6.49168 85.8651 6.63907 86.0997 6.44002C86.3789 6.20304 86.6917 6.00083 87.0381 5.83339C87.6965 5.49835 88.4503 5.33084 89.2993 5.33084C90.3043 5.33084 91.1793 5.56536 91.9243 6.03441C92.6867 6.4867 93.2758 7.14002 93.6917 7.99435C94.1075 8.84868 94.3155 9.85378 94.3155 11.0096V18.667C94.3155 18.8372 94.1721 18.9751 93.9953 18.9751H90.9969C90.8201 18.9751 90.6768 18.8372 90.6768 18.667V11.4619C90.6768 10.5406 90.4602 9.82028 90.027 9.30098C89.5938 8.76493 88.9961 8.4969 88.2337 8.4969C87.6792 8.4969 87.1941 8.62254 86.7782 8.87381C86.3624 9.10834 86.0332 9.44337 85.7906 9.87891C85.548 10.3145 85.4267 10.8086 85.4267 11.3614V18.667C85.4267 18.8372 85.2834 18.9751 85.1066 18.9751H82.1082Z" fill="#151515"/>
<path fill-rule="evenodd" clip-rule="evenodd" d="M102.618 19.352C101.595 19.352 100.651 19.1845 99.7847 18.8494C98.9357 18.4976 98.1993 18.0118 97.5755 17.392C96.9517 16.7555 96.4666 16.01 96.12 15.1557C95.7735 14.2846 95.6002 13.3381 95.6002 12.3163C95.6002 11.3279 95.7735 10.4066 96.12 9.55225C96.4666 8.69792 96.9431 7.96085 97.5495 7.34103C98.1733 6.70447 98.901 6.2103 99.7327 5.85852C100.564 5.50673 101.465 5.33084 102.436 5.33084C103.441 5.33084 104.35 5.49835 105.165 5.83339C105.996 6.16842 106.707 6.64584 107.296 7.26565C107.885 7.88546 108.336 8.62254 108.647 9.47687C108.977 10.3312 109.141 11.286 109.141 12.3414V12.9128C109.141 13.083 108.998 13.2209 108.821 13.2209H99.6633C99.4673 13.2209 99.3166 13.389 99.3576 13.5733C99.5409 14.3962 99.8912 15.0577 100.408 15.5577C100.998 16.1105 101.743 16.3869 102.644 16.3869C103.267 16.3869 104.128 16.2888 104.653 15.9598C105.056 15.7074 105.208 15.4333 105.405 15.0775L105.406 15.0773L105.406 15.0761L105.406 15.0756C105.441 15.0134 105.477 14.9487 105.516 14.8812C105.571 14.7859 105.676 14.7285 105.789 14.7285H108.535C108.712 14.7285 108.857 14.8669 108.844 15.0366C108.62 16.3869 107.919 17.2119 107.339 17.7098C106.716 18.2458 106.1 18.6233 105.269 18.9248C104.437 19.2096 103.553 19.352 102.618 19.352ZM102.436 8.0446C101.639 8.0446 100.963 8.29588 100.408 8.79843C99.9483 9.22892 99.6217 9.79463 99.4286 10.4956C99.3771 10.6824 99.5291 10.8589 99.7301 10.8589H105.026C105.222 10.8589 105.373 10.6903 105.329 10.5064C105.162 9.80044 104.847 9.23113 104.385 8.79843C103.865 8.29588 103.215 8.0446 102.436 8.0446Z" fill="#151515"/>
<path d="M113.219 18.8997C114.016 19.2012 114.9 19.352 115.87 19.352C116.685 19.352 117.43 19.2431 118.106 19.0253C118.781 18.8075 119.37 18.4976 119.873 18.0956C120.375 17.6936 120.757 17.2245 121.017 16.6885C121.294 16.1524 121.432 15.5577 121.432 14.9044C121.432 13.8323 121.043 12.9528 120.263 12.266C119.483 11.5625 118.357 11.085 116.884 10.8338L116.156 10.7081C115.342 10.5741 114.761 10.3982 114.415 10.1804C114.086 9.94592 113.921 9.66114 113.921 9.32611C113.921 8.94082 114.094 8.62254 114.441 8.37126C114.787 8.11999 115.229 7.99435 115.766 7.99435C116.286 7.99435 116.897 8.13674 117.278 8.42152C117.592 8.6459 117.844 8.92883 117.937 9.29171C117.98 9.45903 118.123 9.59992 118.302 9.59677L120.792 9.55292C120.966 9.54985 121.107 9.41262 121.088 9.24568C121.002 8.4869 120.626 7.48471 120.185 7.01438C119.682 6.47833 119.05 6.06791 118.288 5.78313C117.542 5.4816 116.711 5.33084 115.792 5.33084C114.753 5.33084 113.834 5.51511 113.037 5.88364C112.24 6.25218 111.617 6.7631 111.166 7.41642C110.716 8.05298 110.49 8.79005 110.49 9.62764C110.49 10.683 110.872 11.5541 111.634 12.2409C112.414 12.9277 113.549 13.3968 115.039 13.648L115.766 13.7737C116.546 13.9077 117.101 14.1003 117.43 14.3516C117.776 14.5861 117.95 14.8877 117.95 15.2562C117.95 15.6917 117.759 16.0351 117.378 16.2864C116.997 16.5377 116.512 16.6633 115.922 16.6633C115.299 16.6633 114.761 16.5126 114.311 16.211C113.92 15.9495 113.609 15.4333 113.42 14.9621C113.37 14.8372 113.248 14.7504 113.109 14.7504H110.581C110.404 14.7504 110.26 14.8888 110.269 15.0586C110.343 16.3506 110.879 17.1049 111.378 17.6182C111.933 18.171 112.44 18.5981 113.219 18.8997Z" fill="#151515"/>
<path d="M72.3202 18.9751C72.1433 18.9751 72 18.8372 72 18.667V9.16318C72 8.99307 72.1433 8.85517 72.3202 8.85517H74.8194C74.9962 8.85517 75.1395 8.71727 75.1395 8.54715L75.1395 6.01577C75.1395 5.84565 74.9962 5.70775 74.8194 5.70775H72.3202C72.1433 5.70775 72 5.56985 72 5.39974V1.33882C72 1.16871 72.1433 1.0308 72.3202 1.0308H75.3185C75.4953 1.0308 75.6387 1.16871 75.6387 1.33882V5.24573C75.6387 5.41584 75.782 5.55375 75.9588 5.55375H79.8055C79.9823 5.55375 80.1256 5.69165 80.1256 5.86176V8.54715C80.1256 8.71727 79.9823 8.85517 79.8055 8.85517H75.9588C75.782 8.85517 75.6387 8.99307 75.6387 9.16318V18.667C75.6387 18.8372 75.4953 18.9751 75.3185 18.9751H72.3202Z" fill="#151515"/>
<path d="M137.787 18.8997C138.584 19.2012 139.468 19.352 140.438 19.352C141.252 19.352 141.997 19.2431 142.673 19.0253C143.349 18.8075 143.938 18.4976 144.441 18.0956C144.943 17.6936 145.324 17.2245 145.584 16.6885C145.861 16.1524 146 15.5577 146 14.9044C146 13.8323 145.61 12.9528 144.83 12.266C144.051 11.5625 142.924 11.085 141.452 10.8338L140.724 10.7081C139.91 10.5741 139.329 10.3982 138.983 10.1804C138.653 9.94592 138.489 9.66115 138.489 9.32611C138.489 8.94082 138.662 8.62254 139.009 8.37127C139.355 8.11999 139.797 7.99436 140.334 7.99436C140.854 7.99436 141.464 8.13674 141.846 8.42152C142.16 8.64591 142.412 8.92884 142.505 9.29172C142.548 9.45904 142.69 9.59993 142.869 9.59677L145.359 9.55293C145.534 9.54986 145.674 9.41262 145.655 9.24569C145.57 8.4869 145.193 7.48472 144.752 7.01439C144.25 6.47833 143.618 6.06792 142.855 5.78314C142.11 5.48161 141.278 5.33085 140.36 5.33085C139.32 5.33085 138.402 5.51511 137.605 5.88365C136.808 6.25218 136.184 6.76311 135.734 7.41642C135.283 8.05299 135.058 8.79006 135.058 9.62764C135.058 10.683 135.439 11.5541 136.202 12.2409C136.981 12.9277 138.116 13.3968 139.606 13.648L140.334 13.7737C141.114 13.9077 141.668 14.1003 141.997 14.3516C142.344 14.5861 142.517 14.8877 142.517 15.2562C142.517 15.6917 142.327 16.0351 141.945 16.2864C141.564 16.5377 141.079 16.6633 140.49 16.6633C139.866 16.6633 139.329 16.5126 138.879 16.211C138.488 15.9495 138.176 15.4333 137.988 14.9621C137.938 14.8372 137.816 14.7504 137.676 14.7504H135.148C134.972 14.7504 134.827 14.8888 134.837 15.0586C134.911 16.3506 135.447 17.1049 135.946 17.6182C136.5 18.171 137.007 18.5981 137.787 18.8997Z" fill="#151515"/>
<path d="M123.486 23.9124C124.052 23.9821 124.377 24 124.636 24C125.252 24 126.232 23.8834 126.855 23.6165C127.479 23.3497 128.005 22.9639 128.433 22.4591C128.867 21.9544 129.215 21.3481 129.478 20.6403L135.003 5.989C135.068 5.81798 134.937 5.63718 134.748 5.63718H131.856C131.739 5.63718 131.636 5.70917 131.598 5.81601L128.474 14.7915C128.449 14.8631 128.38 14.9113 128.302 14.9113C128.223 14.9113 128.153 14.863 128.129 14.7914L125.01 5.81614C124.973 5.70924 124.869 5.63718 124.752 5.63718H121.878C121.69 5.63718 121.558 5.81754 121.622 5.98846L126.564 19.1823C126.586 19.2415 126.586 19.3063 126.563 19.365L126.305 20.0137C126.103 20.5243 125.856 20.8898 125.562 21.1102C125.275 21.3365 124.939 21.4525 124.554 21.4583C124.247 21.463 123.906 21.4673 123.532 21.3981C123.382 21.3703 123.229 21.4533 123.19 21.5959L122.696 23.4272C122.658 23.5668 122.745 23.7101 122.887 23.7558C122.901 23.7603 122.915 23.7649 122.929 23.7695C123.089 23.8212 123.247 23.8722 123.486 23.9124Z" fill="#151515"/>
</g>
</svg>
